<svg width="48" height="49" viewBox="0 0 48 49" fill="none" xmlns="http://www.w3.org/2000/svg">
  <g clip-path="url(#clip0_155_142)">
    <path d="M43.785 42.275L38.1627 29.5332L25.8086 36.3612L30.9337 47.9879C31.0443 48.2365 31.2246 48.4476 31.4527 48.5958C31.6808 48.744 31.9471 48.8229 32.2191 48.8228C32.6833 48.7349 33.2875 48.4891 33.5101 47.9728L36.0273 42.1349L42.0479 44.1784C42.5779 44.3556 43.1616 44.2085 43.5379 43.7938C43.7225 43.5922 43.8442 43.341 43.888 43.0712C43.9319 42.8014 43.8961 42.5247 43.785 42.275Z" fill="#FF4D4D"/>
    <path d="M9.83731 29.5332L4.21503 42.275C4.10388 42.5247 4.06807 42.8015 4.11199 43.0713C4.1559 43.3411 4.27764 43.5922 4.46225 43.7938C4.83856 44.2085 5.42084 44.3555 5.95231 44.1784L11.9728 42.1349L14.4901 47.9728C14.7126 48.4892 15.266 48.6979 15.7811 48.8228C16.0531 48.8227 16.3192 48.7438 16.5473 48.5956C16.7754 48.4474 16.9557 48.2363 17.0665 47.9879L22.1916 36.3612L9.83731 29.5332Z" fill="#FF8066"/>
    <path d="M24 0.822754C13.92 0.822754 5.71875 9.11775 5.71875 19.1978C5.71875 29.2778 13.92 37.479 24 37.479C34.08 37.479 42.2812 29.2778 42.2812 19.1978C42.2812 9.11775 34.08 0.822754 24 0.822754Z" fill="#FFCC00"/>
    <path d="M42.2812 19.1978C42.2812 9.11775 34.08 0.822754 24 0.822754V37.479C34.08 37.479 42.2812 29.2778 42.2812 19.1978Z" fill="#FF9E22"/>
    <path d="M33.3617 16.1545C33.2802 15.9052 33.1307 15.6836 32.9301 15.5147C32.7294 15.3458 32.4855 15.2364 32.226 15.1987L27.414 14.4997L25.2606 10.1382C25.0244 9.65752 24.5122 9.41724 24 9.41724C23.4877 9.41724 22.9755 9.65752 22.7393 10.1382L20.586 14.4997L15.774 15.1987C15.5144 15.2364 15.2705 15.3458 15.0699 15.5147C14.8692 15.6836 14.7197 15.9052 14.6383 16.1545C14.5573 16.4041 14.5477 16.6714 14.6106 16.9262C14.6734 17.181 14.8062 17.4131 14.994 17.5965L18.4766 20.9926L17.6553 25.7868C17.6111 26.0455 17.64 26.3114 17.7387 26.5545C17.8375 26.7976 18.0022 27.0083 18.2143 27.1629C18.651 27.476 19.2237 27.5186 19.6961 27.2686L24 25.0053L28.3038 27.2685C28.7766 27.5175 29.3489 27.4774 29.7857 27.1628C29.9977 27.0083 30.1624 26.7975 30.2612 26.5544C30.36 26.3113 30.3888 26.0454 30.3446 25.7867L29.5233 20.9925L33.006 17.5964C33.1937 17.413 33.3265 17.1809 33.3894 16.9261C33.4522 16.6714 33.4426 16.4041 33.3617 16.1545Z" fill="#FFF5F5"/>
    <path d="M29.7857 27.1629C29.9978 27.0083 30.1625 26.7976 30.2612 26.5545C30.36 26.3114 30.3889 26.0455 30.3446 25.7868L29.5234 20.9926L33.006 17.5965C33.1938 17.4131 33.3266 17.181 33.3894 16.9262C33.4523 16.6714 33.4427 16.4041 33.3617 16.1545C33.2803 15.9052 33.1308 15.6836 32.9301 15.5147C32.7294 15.3458 32.4856 15.2364 32.226 15.1987L27.414 14.4997L25.2607 10.1382C25.0244 9.65752 24.5123 9.41724 24 9.41724V25.0054L28.3039 27.2686C28.5362 27.3908 28.798 27.4457 29.0599 27.427C29.3217 27.4083 29.5731 27.3168 29.7857 27.1629Z" fill="#ECE6F2"/>
  </g>
  <defs>
    <clipPath id="clip0_155_142">
      <rect width="48" height="48" fill="white" transform="translate(0 0.822754)"/>
    </clipPath>
  </defs>
</svg>
