<svg width="48" height="49" viewBox="0 0 48 49" fill="none" xmlns="http://www.w3.org/2000/svg">
<g id="Frame" clip-path="url(#clip0_155_210)">
<g id="Group">
<path id="Vector" d="M25.4062 10.8757V16.6086C25.4062 17.3849 24.7762 18.0149 24 18.0149C23.2237 18.0149 22.5938 17.3849 22.5938 16.6086V10.8757C22.5938 10.0985 23.2237 9.46948 24 9.46948C24.7762 9.46948 25.4062 10.0985 25.4062 10.8757Z" fill="#00CB76"/>
<path id="Vector_2" d="M25.4062 10.8757V16.6086C25.4062 17.3849 24.7763 18.0149 24 18.0149V9.46948C24.7763 9.46948 25.4062 10.0985 25.4062 10.8757Z" fill="#00A963"/>
<path id="Vector_3" d="M24.771 34.3324V18.4125L23.9999 15.6936H7.83086C5.5668 15.6936 3.72461 17.5359 3.72461 19.7999V32.1893C3.72461 34.4534 5.5668 36.2956 7.83086 36.2956H20.4412C21.1827 36.2956 21.7837 35.6947 21.7837 34.9541C21.7837 34.73 21.7284 34.5191 21.6309 34.3325L24.771 34.3324Z" fill="#FFCC00"/>
<path id="Vector_4" d="M44.2753 19.7999V32.1893C44.2753 34.4534 42.4331 36.2956 40.1691 36.2956L27.5859 36.3144H27.5841C26.8434 36.3144 26.2425 35.7144 26.2416 34.9738C26.2416 34.7422 26.2997 34.5238 26.4028 34.3325H24V15.6936H40.1691C42.4331 15.6936 44.2753 17.5359 44.2753 19.7999Z" fill="#FF9E22"/>
<path id="Vector_5" d="M23.9999 4.0529C23.7243 3.64467 23.4008 3.271 23.0362 2.9399C19.9658 0.156654 14.4552 0.905153 14.2218 0.939185C13.619 1.02506 13.1455 1.45322 13.0508 1.9995C13.0377 2.07515 12.9233 2.76675 12.9233 3.75056C12.9233 5.50922 13.2899 8.20331 15.2587 9.98831C17.2274 11.7725 20.2002 12.1046 22.1418 12.1046C23.0755 12.1046 23.7702 12.0281 23.9999 11.9992L27.2527 7.26497L23.9999 4.0529Z" fill="#8FE26A"/>
<path id="Vector_6" d="M23.9999 32.8193C19.588 32.8193 15.9983 36.4091 15.9983 40.8211C15.9983 45.2331 19.588 48.8227 23.9999 48.8227L25.9886 40.8211L23.9999 32.8193Z" fill="#FF8066"/>
<path id="Vector_7" d="M32.7412 9.98824C31.7569 10.8803 30.5213 11.4096 29.2894 11.7155C28.0575 12.0214 26.8294 12.1046 25.8581 12.1046C24.9244 12.1046 24.2297 12.0281 24 11.9993V4.05302C24.2756 3.64479 24.5991 3.27111 24.9637 2.94002C28.0341 0.156674 33.5456 0.905174 33.7781 0.939111C34.3809 1.02499 34.8544 1.45314 34.9491 1.99942C34.9856 2.21102 35.8116 7.20489 32.7412 9.98824Z" fill="#00CB76"/>
<path id="Vector_8" d="M32.0016 40.821C32.0016 45.233 28.4119 48.8227 24 48.8227V32.8193C28.4119 32.8193 32.0016 36.4091 32.0016 40.821Z" fill="#FF4D4D"/>
<path id="Vector_9" d="M24 38.8326L22.3509 37.1835C21.8015 36.6341 20.9118 36.6341 20.3625 37.1835C19.8131 37.7329 19.8131 38.6226 20.3625 39.172L22.0115 40.821L20.3625 42.4701C19.8131 43.0195 19.8131 43.9091 20.3625 44.4585C20.9109 45.0079 21.8015 45.0079 22.3509 44.4585L24 42.8095L24.6723 40.821L24 38.8326Z" fill="#FFF5F5"/>
<path id="Vector_10" d="M27.6375 42.4702C28.1869 43.0195 28.1869 43.9092 27.6375 44.4586C27.0881 45.008 26.1984 45.008 25.6491 44.4586L24 42.8095V38.8326L25.6491 37.1835C26.1984 36.6341 27.0881 36.6341 27.6375 37.1835C28.1869 37.7329 28.1869 38.6226 27.6375 39.172L25.9884 40.821L27.6375 42.4702Z" fill="#ECE6F2"/>
<path id="Vector_11" d="M24.7092 26.1127L24 25.7087L22.7484 21.4749C22.7437 21.4581 22.7381 21.4412 22.7325 21.4243C22.5018 20.7362 21.8353 20.2909 21.1106 20.3387C20.3859 20.3874 19.784 20.919 19.6471 21.6315C19.6462 21.6371 19.6453 21.6428 19.6443 21.6474L18.1453 29.9509C18.0075 30.7149 18.5156 31.4462 19.2796 31.5849C20.0437 31.7228 20.775 31.2146 20.9137 30.4506L21.5015 27.189L22.4887 30.534C22.6612 31.1584 23.2687 31.6646 24 31.6721L24.7092 29.9635V26.1127ZM11.6402 31.6735C8.51405 31.6735 5.9707 29.1302 5.9707 26.004C5.9707 22.8778 8.51405 20.3345 11.6402 20.3345C12.7762 20.3345 13.8727 20.6696 14.8111 21.3036C15.4546 21.7384 15.624 22.6125 15.1891 23.256C14.7542 23.8996 13.8803 24.0687 13.2366 23.634C12.7653 23.3154 12.2091 23.1457 11.6402 23.1469C10.0649 23.1469 8.7832 24.4285 8.7832 26.0039C8.7832 27.5793 10.0649 28.8609 11.6402 28.8609C12.7351 28.8609 13.3697 28.2315 13.6784 27.4102H12.7698C11.9932 27.4102 11.3636 26.7805 11.3636 26.0039C11.3636 25.2273 11.9932 24.5977 12.7698 24.5977H15.3205C16.0971 24.5977 16.7267 25.2273 16.7267 26.0039C16.7267 29.3422 14.6351 31.6735 11.6402 31.6735Z" fill="#FFF5F5"/>
<path id="Vector_12" d="M36.9893 31.6734C33.8631 31.6734 31.3197 29.1301 31.3197 26.0039C31.3197 22.8777 33.8631 20.3344 36.9893 20.3344C40.1154 20.3344 42.6588 22.8777 42.6588 26.0039C42.6587 29.1301 40.1153 31.6734 36.9893 31.6734ZM36.9893 23.1469C35.4139 23.1469 34.1322 24.4285 34.1322 26.0039C34.1322 27.5793 35.4139 28.8609 36.9893 28.8609C38.5646 28.8609 39.8463 27.5793 39.8463 26.0039C39.8462 24.4285 38.5645 23.1469 36.9893 23.1469ZM28.7813 31.582C28.0191 31.7283 27.2822 31.2276 27.1359 30.4645L26.5078 27.1786C25.5713 30.4673 25.5413 30.5686 25.5413 30.5686C25.4377 30.8887 25.2356 31.1679 24.9639 31.3663C24.6921 31.5646 24.3646 31.672 24.0281 31.673H24.0197C24.0131 31.673 24.0066 31.673 24 31.672V25.7086C24.0094 25.6805 24.0075 25.6889 24.0234 25.6317C24.0694 25.4733 24.2578 24.8133 25.2056 21.488C25.2103 21.472 25.215 21.4561 25.2206 21.4402C25.4447 20.7502 26.1066 20.2964 26.8313 20.3367C27.5559 20.378 28.1634 20.903 28.3078 21.6136C28.3088 21.6192 28.3106 21.6248 28.3116 21.6305L29.8988 29.9367C30.0441 30.6998 29.5444 31.4358 28.7813 31.582Z" fill="#ECE6F2"/>
</g>
</g>
<defs>
<clipPath id="clip0_155_210">
<rect width="48" height="48" fill="white" transform="translate(0 0.822754)"/>
</clipPath>
</defs>
</svg>
