<svg width="48" height="49" viewBox="0 0 48 49" fill="none" xmlns="http://www.w3.org/2000/svg">
<g id="Frame" clip-path="url(#clip0_155_181)">
<g id="Group">
<path id="Vector" d="M46.5938 0.822754H1.40625C0.629625 0.822754 0 1.45238 0 2.229V36.8727C0 37.6493 0.629625 38.279 1.40625 38.279H46.5938C47.3704 38.279 48 37.6493 48 36.8727V2.229C48 1.45238 47.3704 0.822754 46.5938 0.822754Z" fill="#8FE26A"/>
<path id="Vector_2" d="M48 36.8727V2.229C48 1.45238 47.3704 0.822754 46.5938 0.822754H24V38.279H46.5938C47.3704 38.279 48 37.6493 48 36.8727Z" fill="#00CB76"/>
<path id="Vector_3" d="M35.8439 35.4665H12.1561C12.0456 35.4663 11.9388 35.4272 11.8544 35.3559C11.77 35.2846 11.7135 35.1858 11.6948 35.0769C10.9427 30.7546 7.52437 27.3363 3.20203 26.5841C3.09317 26.5655 2.99439 26.509 2.92312 26.4246C2.85186 26.3402 2.81268 26.2333 2.8125 26.1229V12.9788C2.81264 12.8684 2.85181 12.7615 2.92308 12.6771C2.99435 12.5927 3.09315 12.5362 3.20203 12.5176C7.52437 11.7654 10.9427 8.34713 11.6948 4.02479C11.7135 3.91592 11.77 3.81714 11.8544 3.74588C11.9388 3.67461 12.0456 3.63543 12.1561 3.63525H35.8439C35.9544 3.6354 36.0612 3.67456 36.1456 3.74583C36.23 3.81711 36.2865 3.9159 36.3052 4.02479C37.0573 8.34713 40.4756 11.7654 44.798 12.5176C44.9068 12.5363 45.0056 12.5928 45.0769 12.6772C45.1481 12.7616 45.1873 12.8684 45.1875 12.9788V26.123C45.1874 26.2334 45.1482 26.3403 45.0769 26.4247C45.0056 26.5091 44.9068 26.5656 44.798 26.5842C40.4756 27.3364 37.0573 30.7547 36.3052 35.077C36.2865 35.1859 36.23 35.2847 36.1456 35.3559C36.0612 35.4272 35.9544 35.4663 35.8439 35.4665Z" fill="#FFF5F5"/>
<path id="Vector_4" d="M36.3052 35.077C37.0573 30.7547 40.4756 27.3364 44.798 26.5842C44.9068 26.5656 45.0056 26.509 45.0769 26.4247C45.1481 26.3403 45.1873 26.2334 45.1875 26.123V12.9788C45.1874 12.8684 45.1482 12.7615 45.0769 12.6771C45.0056 12.5927 44.9069 12.5362 44.798 12.5176C40.4756 11.7653 37.0573 8.34713 36.3052 4.02479C36.2865 3.91592 36.23 3.81714 36.1456 3.74588C36.0612 3.67461 35.9544 3.63543 35.8439 3.63525H24V35.4665H35.8439C35.9544 35.4663 36.0612 35.4272 36.1456 35.3559C36.23 35.2847 36.2865 35.1859 36.3052 35.077Z" fill="#ECE6F2"/>
<path id="Vector_5" d="M28.5187 33.425H19.4812C18.7046 33.425 18.075 34.0547 18.075 34.8313V47.4166C18.075 47.6947 18.1574 47.9666 18.312 48.1979C18.4665 48.4291 18.6861 48.6094 18.9431 48.7158C19.2 48.8222 19.4828 48.8501 19.7556 48.7958C20.0284 48.7415 20.2789 48.6076 20.4756 48.4109L24 44.8865L27.5244 48.4109C27.7211 48.6075 27.9716 48.7413 28.2444 48.7956C28.5172 48.8498 28.7999 48.8219 29.0568 48.7155C29.3137 48.6091 29.5333 48.4289 29.6879 48.1977C29.8424 47.9665 29.9249 47.6947 29.925 47.4166V34.8313C29.9249 34.0547 29.2953 33.425 28.5187 33.425Z" fill="#FF8066"/>
<path id="Vector_6" d="M29.0569 48.7158C29.3138 48.6093 29.5335 48.4291 29.688 48.1978C29.8425 47.9666 29.925 47.6947 29.925 47.4166V34.8313C29.925 34.0547 29.2954 33.425 28.5188 33.425H24V44.8865L27.5244 48.4109C27.7211 48.6076 27.9716 48.7415 28.2444 48.7957C28.5172 48.85 28.7999 48.8222 29.0569 48.7158Z" fill="#FF4D4D"/>
<path id="Vector_7" d="M30.025 20.2039H17.9749C17.1983 20.2039 16.5687 19.5743 16.5687 18.7976C16.5687 18.021 17.1983 17.3914 17.9749 17.3914H30.0249C30.8015 17.3914 31.4311 18.021 31.4311 18.7976C31.4311 19.5743 30.8016 20.2039 30.025 20.2039ZM34.5437 14.179H13.4562C12.6796 14.179 12.0499 13.5493 12.0499 12.7727C12.0499 11.9961 12.6796 11.3665 13.4562 11.3665H34.5437C35.3204 11.3665 35.95 11.9961 35.95 12.7727C35.95 13.5493 35.3204 14.179 34.5437 14.179Z" fill="#2E4D6D"/>
<path id="Vector_8" d="M24 38.2791C28.1042 38.2791 31.4313 34.952 31.4313 30.8478C31.4313 26.7436 28.1042 23.4165 24 23.4165C19.8958 23.4165 16.5687 26.7436 16.5687 30.8478C16.5687 34.952 19.8958 38.2791 24 38.2791Z" fill="#FFCC00"/>
<path id="Vector_9" d="M31.4313 18.7976C31.4313 18.021 30.8017 17.3914 30.025 17.3914H24V20.2039H30.025C30.8017 20.2039 31.4313 19.5744 31.4313 18.7976ZM35.95 12.7727C35.95 11.9961 35.3204 11.3665 34.5438 11.3665H24V14.179H34.5438C35.3204 14.179 35.95 13.5493 35.95 12.7727Z" fill="#142747"/>
<path id="Vector_10" d="M31.4313 30.8478C31.4313 26.7502 28.0976 23.4165 24 23.4165V38.279C28.0976 38.279 31.4313 34.9453 31.4313 30.8478Z" fill="#FF9E22"/>
<path id="Vector_11" d="M24 35.4666C26.5509 35.4666 28.6188 33.3987 28.6188 30.8478C28.6188 28.2969 26.5509 26.229 24 26.229C21.4491 26.229 19.3812 28.2969 19.3812 30.8478C19.3812 33.3987 21.4491 35.4666 24 35.4666Z" fill="#FFE660"/>
<path id="Vector_12" d="M28.6188 30.8478C28.6188 28.301 26.5468 26.229 24 26.229V35.4665C26.5468 35.4665 28.6188 33.3945 28.6188 30.8478Z" fill="#FFC748"/>
</g>
</g>
<defs>
<clipPath id="clip0_155_181">
<rect width="48" height="48" fill="white" transform="translate(0 0.822754)"/>
</clipPath>
</defs>
</svg>
