<svg width="1920" height="150" viewBox="0 0 1920 150" fill="none" xmlns="http://www.w3.org/2000/svg">
<path fill-rule="evenodd" clip-rule="evenodd" d="M1920 75L1840 83.3333C1760 91.6667 1600 108.333 1440 120.833C1280 133.333 1120 141.667 960 129.167C800 116.667 640 83.3332 480 83.3332C320 83.3332 160 116.667 80 133.333L0 150L1.31134e-05 -0.000167852L80 -0.000160858C160 -0.000153864 320 -0.000139876 480 -0.000125889C640 -0.000111901 800 -9.79135e-05 960 -8.39259e-05C1120 -6.99382e-05 1280 -5.59506e-05 1440 -4.19629e-05C1600 -2.79753e-05 1760 -1.39876e-05 1840 -6.99382e-06L1920 0L1920 75Z" fill="white"/>
</svg>
